<?xml version="1.0" encoding="UTF-8"?>
<svg version="1.1" xmlns="http://www.w3.org/2000/svg" width="500" height="398">
<path d="M0 0 C146.85 0 293.7 0 445 0 C445 6.93 445 13.86 445 21 C451.93 21 458.86 21 466 21 C466 132.87 466 244.74 466 360 C459.07 360 452.14 360 445 360 C445 366.93 445 373.86 445 381 C298.15 381 151.3 381 0 381 C0 374.07 0 367.14 0 360 C-6.93 360 -13.86 360 -21 360 C-21 248.13 -21 136.26 -21 21 C-14.07 21 -7.14 21 0 21 C0 14.07 0 7.14 0 0 Z " fill="#F0D9BD" transform="translate(30,7)"/>
<path d="M0 0 C146.85 0 293.7 0 445 0 C445 6.93 445 13.86 445 21 C451.93 21 458.86 21 466 21 C466 132.87 466 244.74 466 360 C459.07 360 452.14 360 445 360 C445 366.93 445 373.86 445 381 C298.15 381 151.3 381 0 381 C0 374.07 0 367.14 0 360 C-6.93 360 -13.86 360 -21 360 C-21 248.13 -21 136.26 -21 21 C-14.07 21 -7.14 21 0 21 C0 14.07 0 7.14 0 0 Z M21 21 C21 27.93 21 34.86 21 42 C27.93 42 34.86 42 42 42 C42 48.93 42 55.86 42 63 C48.93 63 55.86 63 63 63 C63 69.93 63 76.86 63 84 C70.26 84 77.52 84 85 84 C85 98.19 85 112.38 85 127 C98.86 127 112.72 127 127 127 C127 133.93 127 140.86 127 148 C133.93 148 140.86 148 148 148 C148 154.93 148 161.86 148 169 C155.26 169 162.52 169 170 169 C170 175.93 170 182.86 170 190 C183.86 190 197.72 190 212 190 C212 197.26 212 204.52 212 212 C218.93 212 225.86 212 233 212 C233 204.74 233 197.48 233 190 C246.86 190 260.72 190 275 190 C275 204.19 275 218.38 275 233 C268.07 233 261.14 233 254 233 C254 239.93 254 246.86 254 254 C247.07 254 240.14 254 233 254 C233 260.93 233 267.86 233 275 C226.07 275 219.14 275 212 275 C212 268.07 212 261.14 212 254 C205.07 254 198.14 254 191 254 C191 247.07 191 240.14 191 233 C184.07 233 177.14 233 170 233 C170 226.07 170 219.14 170 212 C162.74 212 155.48 212 148 212 C148 218.93 148 225.86 148 233 C141.07 233 134.14 233 127 233 C127 239.93 127 246.86 127 254 C120.07 254 113.14 254 106 254 C106 260.93 106 267.86 106 275 C99.07 275 92.14 275 85 275 C85 282.26 85 289.52 85 297 C77.74 297 70.48 297 63 297 C63 303.93 63 310.86 63 318 C56.07 318 49.14 318 42 318 C42 324.93 42 331.86 42 339 C35.07 339 28.14 339 21 339 C21 345.93 21 352.86 21 360 C160.92 360 300.84 360 445 360 C445 255.06 445 150.12 445 42 C438.07 42 431.14 42 424 42 C424 35.07 424 28.14 424 21 C291.01 21 158.02 21 21 21 Z " fill="#F0D9BD" transform="translate(30,7)"/>
<path d="M0 0 C6.93 0 13.86 0 21 0 C21 104.94 21 209.88 21 318 C14.07 318 7.14 318 0 318 C0 311.07 0 304.14 0 297 C-6.93 297 -13.86 297 -21 297 C-21 290.07 -21 283.14 -21 276 C-28.26 276 -35.52 276 -43 276 C-43 269.07 -43 262.14 -43 255 C-49.93 255 -56.86 255 -64 255 C-64 247.74 -64 240.48 -64 233 C-71.26 233 -78.52 233 -86 233 C-86 226.07 -86 219.14 -86 212 C-92.93 212 -99.86 212 -107 212 C-107 205.07 -107 198.14 -107 191 C-113.93 191 -120.86 191 -128 191 C-128 184.07 -128 177.14 -128 170 C-134.93 170 -141.86 170 -149 170 C-149 155.81 -149 141.62 -149 127 C-142.07 127 -135.14 127 -128 127 C-128 133.93 -128 140.86 -128 148 C-121.07 148 -114.14 148 -107 148 C-107 141.07 -107 134.14 -107 127 C-100.07 127 -93.14 127 -86 127 C-86 106.21 -86 85.42 -86 64 C-78.74 64 -71.48 64 -64 64 C-64 56.74 -64 49.48 -64 42 C-57.07 42 -50.14 42 -43 42 C-43 35.07 -43 28.14 -43 21 C-28.81 21 -14.62 21 0 21 C0 14.07 0 7.14 0 0 Z " fill="#EFD6BA" transform="translate(454,49)"/>
<path d="M0 0 C146.85 0 293.7 0 445 0 C445 6.93 445 13.86 445 21 C451.93 21 458.86 21 466 21 C466 132.87 466 244.74 466 360 C459.07 360 452.14 360 445 360 C445 255.06 445 150.12 445 42 C438.07 42 431.14 42 424 42 C424 35.07 424 28.14 424 21 C291.01 21 158.02 21 21 21 C21 27.93 21 34.86 21 42 C14.07 42 7.14 42 0 42 C0 146.94 0 251.88 0 360 C-6.93 360 -13.86 360 -21 360 C-21 248.13 -21 136.26 -21 21 C-14.07 21 -7.14 21 0 21 C0 14.07 0 7.14 0 0 Z " fill="#CE655D" transform="translate(30,7)"/>
<path d="M0 0 C146.85 0 293.7 0 445 0 C445 6.93 445 13.86 445 21 C298.15 21 151.3 21 0 21 C0 14.07 0 7.14 0 0 Z " fill="#CE655D" transform="translate(30,367)"/>
<path d="M0 0 C13.86 0 27.72 0 42 0 C42 7.26 42 14.52 42 22 C48.93 22 55.86 22 63 22 C63 14.74 63 7.48 63 0 C76.86 0 90.72 0 105 0 C105 14.19 105 28.38 105 43 C98.07 43 91.14 43 84 43 C84 49.93 84 56.86 84 64 C77.07 64 70.14 64 63 64 C63 70.93 63 77.86 63 85 C56.07 85 49.14 85 42 85 C42 78.07 42 71.14 42 64 C35.07 64 28.14 64 21 64 C21 57.07 21 50.14 21 43 C14.07 43 7.14 43 0 43 C0 28.81 0 14.62 0 0 Z " fill="#BD483F" transform="translate(200,197)"/>
<path d="M0 0 C7.26 0 14.52 0 22 0 C22 14.19 22 28.38 22 43 C14.74 43 7.48 43 0 43 C0 28.81 0 14.62 0 0 Z " fill="#D1989A" transform="translate(178,176)"/>
<path d="M0 0 C6.93 0 13.86 0 21 0 C21 14.19 21 28.38 21 43 C14.07 43 7.14 43 0 43 C0 28.81 0 14.62 0 0 Z " fill="#D1989A" transform="translate(305,176)"/>
<path d="M0 0 C7.26 0 14.52 0 22 0 C22 7.26 22 14.52 22 22 C14.74 22 7.48 22 0 22 C0 14.74 0 7.48 0 0 Z " fill="#D1989A" transform="translate(93,282)"/>
<path d="M0 0 C7.26 0 14.52 0 22 0 C22 7.26 22 14.52 22 22 C14.74 22 7.48 22 0 22 C0 14.74 0 7.48 0 0 Z " fill="#E4CDD5" transform="translate(411,91)"/>
<path d="M0 0 C7.26 0 14.52 0 22 0 C22 7.26 22 14.52 22 22 C14.74 22 7.48 22 0 22 C0 14.74 0 7.48 0 0 Z " fill="#D1989A" transform="translate(93,91)"/>
<path d="M0 0 C7.26 0 14.52 0 22 0 C22 6.93 22 13.86 22 21 C14.74 21 7.48 21 0 21 C0 14.07 0 7.14 0 0 Z " fill="#D1989A" transform="translate(411,304)"/>
<path d="M0 0 C6.93 0 13.86 0 21 0 C21 7.26 21 14.52 21 22 C14.07 22 7.14 22 0 22 C0 14.74 0 7.48 0 0 Z " fill="#D1989A" transform="translate(390,282)"/>
<path d="M0 0 C7.26 0 14.52 0 22 0 C22 6.93 22 13.86 22 21 C14.74 21 7.48 21 0 21 C0 14.07 0 7.14 0 0 Z " fill="#D1989A" transform="translate(368,261)"/>
<path d="M0 0 C7.26 0 14.52 0 22 0 C22 6.93 22 13.86 22 21 C14.74 21 7.48 21 0 21 C0 14.07 0 7.14 0 0 Z " fill="#E4CDD5" transform="translate(368,134)"/>
<path d="M0 0 C7.26 0 14.52 0 22 0 C22 6.93 22 13.86 22 21 C14.74 21 7.48 21 0 21 C0 14.07 0 7.14 0 0 Z " fill="#D1989A" transform="translate(368,113)"/>
<path d="M0 0 C7.26 0 14.52 0 22 0 C22 6.93 22 13.86 22 21 C14.74 21 7.48 21 0 21 C0 14.07 0 7.14 0 0 Z " fill="#E4CDD5" transform="translate(93,113)"/>
<path d="M0 0 C6.93 0 13.86 0 21 0 C21 7.26 21 14.52 21 22 C14.07 22 7.14 22 0 22 C0 14.74 0 7.48 0 0 Z " fill="#D1989A" transform="translate(390,91)"/>
<path d="M0 0 C6.93 0 13.86 0 21 0 C21 7.26 21 14.52 21 22 C14.07 22 7.14 22 0 22 C0 14.74 0 7.48 0 0 Z " fill="#E4CDD5" transform="translate(72,91)"/>
<path d="M0 0 C7.26 0 14.52 0 22 0 C22 6.93 22 13.86 22 21 C14.74 21 7.48 21 0 21 C0 14.07 0 7.14 0 0 Z " fill="#D1989A" transform="translate(411,70)"/>
<path d="M0 0 C6.93 0 13.86 0 21 0 C21 6.93 21 13.86 21 21 C14.07 21 7.14 21 0 21 C0 14.07 0 7.14 0 0 Z " fill="#D1989A" transform="translate(454,346)"/>
<path d="M0 0 C6.93 0 13.86 0 21 0 C21 6.93 21 13.86 21 21 C14.07 21 7.14 21 0 21 C0 14.07 0 7.14 0 0 Z " fill="#D1989A" transform="translate(30,346)"/>
<path d="M0 0 C6.93 0 13.86 0 21 0 C21 6.93 21 13.86 21 21 C14.07 21 7.14 21 0 21 C0 14.07 0 7.14 0 0 Z " fill="#D1989A" transform="translate(433,325)"/>
<path d="M0 0 C6.93 0 13.86 0 21 0 C21 6.93 21 13.86 21 21 C14.07 21 7.14 21 0 21 C0 14.07 0 7.14 0 0 Z " fill="#D1989A" transform="translate(51,325)"/>
<path d="M0 0 C6.93 0 13.86 0 21 0 C21 6.93 21 13.86 21 21 C14.07 21 7.14 21 0 21 C0 14.07 0 7.14 0 0 Z " fill="#D1989A" transform="translate(72,304)"/>
<path d="M0 0 C6.93 0 13.86 0 21 0 C21 6.93 21 13.86 21 21 C14.07 21 7.14 21 0 21 C0 14.07 0 7.14 0 0 Z " fill="#D1989A" transform="translate(115,261)"/>
<path d="M0 0 C6.93 0 13.86 0 21 0 C21 6.93 21 13.86 21 21 C14.07 21 7.14 21 0 21 C0 14.07 0 7.14 0 0 Z " fill="#D1989A" transform="translate(347,240)"/>
<path d="M0 0 C6.93 0 13.86 0 21 0 C21 6.93 21 13.86 21 21 C14.07 21 7.14 21 0 21 C0 14.07 0 7.14 0 0 Z " fill="#D1989A" transform="translate(136,240)"/>
<path d="M0 0 C6.93 0 13.86 0 21 0 C21 6.93 21 13.86 21 21 C14.07 21 7.14 21 0 21 C0 14.07 0 7.14 0 0 Z " fill="#D1989A" transform="translate(326,219)"/>
<path d="M0 0 C6.93 0 13.86 0 21 0 C21 6.93 21 13.86 21 21 C14.07 21 7.14 21 0 21 C0 14.07 0 7.14 0 0 Z " fill="#D1989A" transform="translate(157,219)"/>
<path d="M0 0 C6.93 0 13.86 0 21 0 C21 6.93 21 13.86 21 21 C14.07 21 7.14 21 0 21 C0 14.07 0 7.14 0 0 Z " fill="#E4CDD5" transform="translate(326,176)"/>
<path d="M0 0 C6.93 0 13.86 0 21 0 C21 6.93 21 13.86 21 21 C14.07 21 7.14 21 0 21 C0 14.07 0 7.14 0 0 Z " fill="#E4CDD5" transform="translate(157,176)"/>
<path d="M0 0 C6.93 0 13.86 0 21 0 C21 6.93 21 13.86 21 21 C14.07 21 7.14 21 0 21 C0 14.07 0 7.14 0 0 Z " fill="#E4CDD5" transform="translate(347,155)"/>
<path d="M0 0 C6.93 0 13.86 0 21 0 C21 6.93 21 13.86 21 21 C14.07 21 7.14 21 0 21 C0 14.07 0 7.14 0 0 Z " fill="#D1989A" transform="translate(326,155)"/>
<path d="M0 0 C6.93 0 13.86 0 21 0 C21 6.93 21 13.86 21 21 C14.07 21 7.14 21 0 21 C0 14.07 0 7.14 0 0 Z " fill="#D1989A" transform="translate(157,155)"/>
<path d="M0 0 C6.93 0 13.86 0 21 0 C21 6.93 21 13.86 21 21 C14.07 21 7.14 21 0 21 C0 14.07 0 7.14 0 0 Z " fill="#E4CDD5" transform="translate(136,155)"/>
<path d="M0 0 C6.93 0 13.86 0 21 0 C21 6.93 21 13.86 21 21 C14.07 21 7.14 21 0 21 C0 14.07 0 7.14 0 0 Z " fill="#D1989A" transform="translate(347,134)"/>
<path d="M0 0 C6.93 0 13.86 0 21 0 C21 6.93 21 13.86 21 21 C14.07 21 7.14 21 0 21 C0 14.07 0 7.14 0 0 Z " fill="#D1989A" transform="translate(136,134)"/>
<path d="M0 0 C6.93 0 13.86 0 21 0 C21 6.93 21 13.86 21 21 C14.07 21 7.14 21 0 21 C0 14.07 0 7.14 0 0 Z " fill="#E4CDD5" transform="translate(115,134)"/>
<path d="M0 0 C6.93 0 13.86 0 21 0 C21 6.93 21 13.86 21 21 C14.07 21 7.14 21 0 21 C0 14.07 0 7.14 0 0 Z " fill="#E4CDD5" transform="translate(390,113)"/>
<path d="M0 0 C6.93 0 13.86 0 21 0 C21 6.93 21 13.86 21 21 C14.07 21 7.14 21 0 21 C0 14.07 0 7.14 0 0 Z " fill="#D1989A" transform="translate(115,113)"/>
<path d="M0 0 C6.93 0 13.86 0 21 0 C21 6.93 21 13.86 21 21 C14.07 21 7.14 21 0 21 C0 14.07 0 7.14 0 0 Z " fill="#E4CDD5" transform="translate(433,70)"/>
<path d="M0 0 C6.93 0 13.86 0 21 0 C21 6.93 21 13.86 21 21 C14.07 21 7.14 21 0 21 C0 14.07 0 7.14 0 0 Z " fill="#D1989A" transform="translate(72,70)"/>
<path d="M0 0 C6.93 0 13.86 0 21 0 C21 6.93 21 13.86 21 21 C14.07 21 7.14 21 0 21 C0 14.07 0 7.14 0 0 Z " fill="#E4CDD5" transform="translate(51,70)"/>
<path d="M0 0 C6.93 0 13.86 0 21 0 C21 6.93 21 13.86 21 21 C14.07 21 7.14 21 0 21 C0 14.07 0 7.14 0 0 Z " fill="#E4CDD5" transform="translate(454,49)"/>
<path d="M0 0 C6.93 0 13.86 0 21 0 C21 6.93 21 13.86 21 21 C14.07 21 7.14 21 0 21 C0 14.07 0 7.14 0 0 Z " fill="#D1989A" transform="translate(433,49)"/>
<path d="M0 0 C6.93 0 13.86 0 21 0 C21 6.93 21 13.86 21 21 C14.07 21 7.14 21 0 21 C0 14.07 0 7.14 0 0 Z " fill="#D1989A" transform="translate(51,49)"/>
<path d="M0 0 C6.93 0 13.86 0 21 0 C21 6.93 21 13.86 21 21 C14.07 21 7.14 21 0 21 C0 14.07 0 7.14 0 0 Z " fill="#E4CDD5" transform="translate(30,49)"/>
<path d="M0 0 C6.93 0 13.86 0 21 0 C21 6.93 21 13.86 21 21 C14.07 21 7.14 21 0 21 C0 14.07 0 7.14 0 0 Z " fill="#D1989A" transform="translate(454,28)"/>
<path d="M0 0 C6.93 0 13.86 0 21 0 C21 6.93 21 13.86 21 21 C14.07 21 7.14 21 0 21 C0 14.07 0 7.14 0 0 Z " fill="#D1989A" transform="translate(30,28)"/>
</svg>
