<?xml version="1.0" standalone="no"?>
<!DOCTYPE svg PUBLIC "-//W3C//DTD SVG 20010904//EN"
 "http://www.w3.org/TR/2001/REC-SVG-20010904/DTD/svg10.dtd">
<svg version="1.0" xmlns="http://www.w3.org/2000/svg"
 width="900.000000pt" height="900.000000pt" viewBox="0 0 900.000000 900.000000"
 preserveAspectRatio="xMidYMid meet">

<g transform="translate(0.000000,900.000000) scale(0.100000,-0.100000)"
fill="#000000" stroke="none">
<path d="M3169 8308 c0 -7 0 -97 1 -200 l1 -188 -208 -2 -208 -3 -3 -407 -2
-408 -415 0 -415 0 0 -430 0 -430 200 0 200 0 2 218 3 217 217 3 218 2 2 203
3 202 200 2 200 2 5 408 5 408 720 0 720 0 2 -195 c1 -107 3 -201 3 -207 0
-10 46 -13 195 -13 l195 0 0 -1010 0 -1010 -195 0 c-123 0 -195 -4 -195 -10 0
-5 0 -185 0 -400 0 -214 0 -394 0 -400 0 -7 417 -10 1230 -10 l1230 0 -2 -382
-3 -383 -197 -3 -198 -2 -2 -408 -3 -407 -197 0 c-108 0 -199 -3 -203 -6 -3
-4 -7 -96 -8 -205 l-2 -199 -205 -5 -205 -5 -5 -205 -5 -205 -208 -5 -207 -5
-3 -565 -2 -565 -410 0 -410 0 -3 187 -2 188 207 2 208 3 3 378 2 377 -310 0
-310 0 0 -570 0 -570 -398 0 c-219 0 -401 2 -403 4 -2 2 -3 88 -1 190 l3 186
204 0 205 0 0 370 c0 204 1 373 3 378 1 4 -92 9 -208 12 l-210 5 -5 195 -5
195 -205 5 -205 5 -2 199 c-1 109 -4 200 -6 203 -3 2 -100 4 -216 3 l-211 -1
0 806 0 805 215 0 c165 0 215 3 215 13 1 6 0 100 0 207 -1 140 -4 196 -13 202
-7 4 -104 7 -217 5 l-205 -2 -3 -207 -2 -208 -208 -2 -207 -3 -3 -807 -2 -808
207 -2 208 -3 3 -207 2 -208 218 -2 217 -3 3 -185 c1 -102 4 -191 7 -197 3
-10 53 -13 205 -13 l200 0 0 -367 0 -368 -192 3 c-106 1 -198 -1 -205 -6 -9
-5 -12 -108 -13 -392 -1 -212 -1 -391 -1 -398 1 -10 273 -12 1344 -10 l1342 3
3 768 2 767 200 0 c152 0 202 3 205 12 3 7 6 101 7 208 l3 195 205 5 205 5 5
205 5 205 195 5 195 5 3 402 2 403 183 2 182 3 0 590 0 590 -1217 3 -1218 2 0
200 0 200 198 2 197 3 0 1015 0 1015 -197 3 -198 2 -2 208 -3 207 -197 3 -197
2 0 188 c0 103 0 193 -1 200 0 18 -1450 18 -1451 0z"/>
<path d="M3780 7085 l0 -405 198 2 197 3 0 400 0 400 -197 3 -198 2 0 -405z"/>
<path d="M3176 6242 c-8 -13 -8 -1101 0 -1139 l7 -33 193 0 194 0 -2 588 -3
587 -192 3 c-105 1 -194 -2 -197 -6z"/>
</g>
</svg>
