<?xml version="1.0" encoding="UTF-8"?>
<svg version="1.1" xmlns="http://www.w3.org/2000/svg" width="381" height="211">
<path d="M0 0 C125.73 0 251.46 0 381 0 C381 69.63 381 139.26 381 211 C255.27 211 129.54 211 0 211 C0 141.37 0 71.74 0 0 Z " fill="#E0C1CB" transform="translate(0,0)"/>
<path d="M0 0 C125.73 0 251.46 0 381 0 C381 69.63 381 139.26 381 211 C255.27 211 129.54 211 0 211 C0 141.37 0 71.74 0 0 Z M21 20 C21 68.51 21 117.02 21 167 C125.61 167 230.22 167 338 167 C338 118.49 338 69.98 338 20 C233.39 20 128.78 20 21 20 Z " fill="#C8685E" transform="translate(0,0)"/>
<path d="M0 0 C104.61 0 209.22 0 317 0 C317 14.52 317 29.04 317 44 C219.65 44 122.3 44 22 44 C22 36.74 22 29.48 22 22 C14.74 22 7.48 22 0 22 C0 14.74 0 7.48 0 0 Z " fill="#C8685E" transform="translate(21,167)"/>
<path d="M0 0 C14.19 0 28.38 0 43 0 C43 69.63 43 139.26 43 211 C28.81 211 14.62 211 0 211 C0 141.37 0 71.74 0 0 Z " fill="#C492A9" transform="translate(338,0)"/>
<path d="M0 0 C97.35 0 194.7 0 295 0 C295 7.26 295 14.52 295 22 C197.65 22 100.3 22 0 22 C0 14.74 0 7.48 0 0 Z " fill="#C493AA" transform="translate(43,189)"/>
<path d="M0 0 C7.26 0 14.52 0 22 0 C22 48.51 22 97.02 22 147 C14.74 147 7.48 147 0 147 C0 98.49 0 49.98 0 0 Z " fill="#C8685E" transform="translate(338,20)"/>
<path d="M0 0 C6.6 0 13.2 0 20 0 C20 48.51 20 97.02 20 147 C13.4 147 6.8 147 0 147 C0 98.49 0 49.98 0 0 Z " fill="#C8685E" transform="translate(1,20)"/>
<path d="M0 0 C14.52 0 29.04 0 44 0 C44 6.6 44 13.2 44 20 C36.74 20 29.48 20 22 20 C22 48.05 22 76.1 22 105 C14.74 105 7.48 105 0 105 C0 70.35 0 35.7 0 0 Z " fill="#C8685E" transform="translate(63,42)"/>
<path d="M0 0 C13.53 0 27.06 0 41 0 C41 21.12 41 42.24 41 64 C27.47 64 13.94 64 0 64 C0 42.88 0 21.76 0 0 Z " fill="#E0C1CB" transform="translate(213,62)"/>
<path d="M0 0 C6.6 0 13.2 0 20 0 C20 34.65 20 69.3 20 105 C6.14 105 -7.72 105 -22 105 C-22 98.07 -22 91.14 -22 84 C-14.74 84 -7.48 84 0 84 C0 56.28 0 28.56 0 0 Z " fill="#C8685E" transform="translate(149,42)"/>
<path d="M0 0 C6.93 0 13.86 0 21 0 C21 6.6 21 13.2 21 20 C14.4 20 7.8 20 1 20 C1 68.51 1 117.02 1 167 C7.6 167 14.2 167 21 167 C21 174.26 21 181.52 21 189 C28.26 189 35.52 189 43 189 C43 196.26 43 203.52 43 211 C28.81 211 14.62 211 0 211 C0 141.37 0 71.74 0 0 Z " fill="#000000" transform="translate(0,0)"/>
<path d="M0 0 C7.26 0 14.52 0 22 0 C22 21.12 22 42.24 22 64 C14.74 64 7.48 64 0 64 C0 42.88 0 21.76 0 0 Z " fill="#C8685E" transform="translate(254,62)"/>
<path d="M0 0 C7.26 0 14.52 0 22 0 C22 21.12 22 42.24 22 64 C14.74 64 7.48 64 0 64 C0 42.88 0 21.76 0 0 Z " fill="#C8685E" transform="translate(191,62)"/>
<path d="M0 0 C6.6 0 13.2 0 20 0 C20 13.86 20 27.72 20 42 C5.81 42 -8.38 42 -23 42 C-23 34.74 -23 27.48 -23 20 C-15.41 19.67 -7.82 19.34 0 19 C0 12.73 0 6.46 0 0 Z " fill="#010100" transform="translate(361,169)"/>
<path d="M0 0 C6.6 0 13.2 0 20 0 C20 21.12 20 42.24 20 64 C13.4 64 6.8 64 0 64 C0 42.88 0 21.76 0 0 Z " fill="#C8685E" transform="translate(107,62)"/>
<path d="M0 0 C13.53 0 27.06 0 41 0 C41 6.93 41 13.86 41 21 C27.47 21 13.94 21 0 21 C0 14.07 0 7.14 0 0 Z " fill="#C8685E" transform="translate(213,126)"/>
<path d="M0 0 C13.53 0 27.06 0 41 0 C41 6.6 41 13.2 41 20 C27.47 20 13.94 20 0 20 C0 13.4 0 6.8 0 0 Z " fill="#C8685E" transform="translate(213,42)"/>
<path d="M0 0 C7.26 0 14.52 0 22 0 C22 6.6 22 13.2 22 20 C14.74 20 7.48 20 0 20 C0 13.4 0 6.8 0 0 Z " fill="#C493AA" transform="translate(338,0)"/>
<path d="M0 0 C6.93 0 13.86 0 21 0 C21 6.6 21 13.2 21 20 C14.07 20 7.14 20 0 20 C0 13.4 0 6.8 0 0 Z " fill="#000000" transform="translate(360,0)"/>
</svg>
