<?xml version="1.0" encoding="UTF-8"?>
<svg version="1.1" xmlns="http://www.w3.org/2000/svg" width="380" height="211">
<path d="M0 0 C125.4 0 250.8 0 380 0 C380 69.63 380 139.26 380 211 C254.6 211 129.2 211 0 211 C0 141.37 0 71.74 0 0 Z " fill="#E0C1CB" transform="translate(0,0)"/>
<path d="M0 0 C125.4 0 250.8 0 380 0 C380 69.63 380 139.26 380 211 C254.6 211 129.2 211 0 211 C0 141.37 0 71.74 0 0 Z M21 20 C21 68.84 21 117.68 21 168 C125.61 168 230.22 168 338 168 C338 119.16 338 70.32 338 20 C233.39 20 128.78 20 21 20 Z " fill="#C8685E" transform="translate(0,0)"/>
<path d="M0 0 C118.47 0 236.94 0 359 0 C359 55.44 359 110.88 359 168 C352.4 168 345.8 168 339 168 C339 119.16 339 70.32 339 20 C227.13 20 115.26 20 0 20 C0 13.4 0 6.8 0 0 Z " fill="#C8685E" transform="translate(21,0)"/>
<path d="M0 0 C97.35 0 194.7 0 295 0 C295 6.93 295 13.86 295 21 C197.65 21 100.3 21 0 21 C0 14.07 0 7.14 0 0 Z " fill="#B5D0A6" transform="translate(43,190)"/>
<path d="M0 0 C7.26 0 14.52 0 22 0 C22 48.84 22 97.68 22 148 C28.6 148 35.2 148 42 148 C42 162.19 42 176.38 42 191 C28.14 191 14.28 191 0 191 C0 127.97 0 64.94 0 0 Z " fill="#C8685E" transform="translate(338,20)"/>
<path d="M0 0 C7.26 0 14.52 0 22 0 C22 13.86 22 27.72 22 42 C29.26 42 36.52 42 44 42 C44 28.14 44 14.28 44 0 C50.6 0 57.2 0 64 0 C64 34.98 64 69.96 64 106 C42.88 106 21.76 106 0 106 C0 98.74 0 91.48 0 84 C14.52 84 29.04 84 44 84 C44 77.4 44 70.8 44 64 C29.48 64 14.96 64 0 64 C0 42.88 0 21.76 0 0 Z " fill="#C8685E" transform="translate(63,42)"/>
<path d="M0 0 C20.79 0 41.58 0 63 0 C63 6.6 63 13.2 63 20 C49.14 20 35.28 20 21 20 C21 27.26 21 34.52 21 42 C34.86 42 48.72 42 63 42 C63 63.12 63 84.24 63 106 C42.21 106 21.42 106 0 106 C0 98.74 0 91.48 0 84 C13.53 84 27.06 84 41 84 C41 77.4 41 70.8 41 64 C27.47 64 13.94 64 0 64 C0 42.88 0 21.76 0 0 Z " fill="#C8685E" transform="translate(233,42)"/>
<path d="M0 0 C6.93 0 13.86 0 21 0 C21 62.7 21 125.4 21 190 C28.26 190 35.52 190 43 190 C43 196.93 43 203.86 43 211 C28.81 211 14.62 211 0 211 C0 141.37 0 71.74 0 0 Z " fill="#C7685D" transform="translate(0,0)"/>
<path d="M0 0 C21.12 0 42.24 0 64 0 C64 6.6 64 13.2 64 20 C49.48 20 34.96 20 20 20 C20 27.26 20 34.52 20 42 C27.26 42 34.52 42 42 42 C42 49.26 42 56.52 42 64 C34.74 64 27.48 64 20 64 C20 70.6 20 77.2 20 84 C34.52 84 49.04 84 64 84 C64 91.26 64 98.52 64 106 C42.88 106 21.76 106 0 106 C0 71.02 0 36.04 0 0 Z " fill="#C8685E" transform="translate(149,42)"/>
<path d="M0 0 C6.6 0 13.2 0 20 0 C20 48.84 20 97.68 20 148 C13.4 148 6.8 148 0 148 C0 99.16 0 50.32 0 0 Z " fill="#B5D0A6" transform="translate(360,20)"/>
<path d="M0 0 C6.93 0 13.86 0 21 0 C21 7.26 21 14.52 21 22 C28.26 22 35.52 22 43 22 C43 28.93 43 35.86 43 43 C28.81 43 14.62 43 0 43 C0 28.81 0 14.62 0 0 Z " fill="#000000" transform="translate(0,168)"/>
<path d="M0 0 C6.6 0 13.2 0 20 0 C20 14.19 20 28.38 20 43 C6.14 43 -7.72 43 -22 43 C-22 36.07 -22 29.14 -22 22 C-14.74 22 -7.48 22 0 22 C0 14.74 0 7.48 0 0 Z " fill="#000000" transform="translate(360,168)"/>
<path d="M0 0 C13.86 0 27.72 0 42 0 C42 6.6 42 13.2 42 20 C28.14 20 14.28 20 0 20 C0 13.4 0 6.8 0 0 Z " fill="#B5D0A6" transform="translate(338,0)"/>
<path d="M0 0 C7.26 0 14.52 0 22 0 C22 7.26 22 14.52 22 22 C14.74 22 7.48 22 0 22 C0 14.74 0 7.48 0 0 Z " fill="#B5D0A6" transform="translate(338,168)"/>
<path d="M0 0 C6.93 0 13.86 0 21 0 C21 6.6 21 13.2 21 20 C14.07 20 7.14 20 0 20 C0 13.4 0 6.8 0 0 Z " fill="#000000" transform="translate(0,0)"/>
<path d="M0 0 C6.6 0 13.2 0 20 0 C20 6.6 20 13.2 20 20 C13.4 20 6.8 20 0 20 C0 13.4 0 6.8 0 0 Z " fill="#000000" transform="translate(360,0)"/>
</svg>
